#!OML:ASF F:\VICON\USERDATA\INSTALL\Justin_Nancy\Justin_Nancy.ASF
:FULLY-SPECIFIED
:DEGREES
81
root 1.91058 17.2131 -13.8273 -4.49783 -4.40136 5.10508
lowerback 7.45258 0.0101374 -3.39969
upperback 0.494042 -0.24799 0.634375
thorax -3.6523 -0.063999 2.59525
lowerneck -14.9613 -2.97657 -9.78543
upperneck 21.6346 -2.69382 4.16529
head 9.50567 -1.60468 2.73778
rclavicle -1.67259e-014 7.95139e-016
rhumerus -29.0016 -15.7969 -77.9606
rradius 30.4928
rwrist 9.09466
rhand -14.7563 10.6733
rfingers 7.12502
rthumb 11.3998 -18.9968
lclavicle -1.67259e-014 7.95139e-016
lhumerus -35.0621 14.3885 81.5643
lradius 21.2655
lwrist -13.0048
lhand -12.8331 27.669
lfingers 7.12502
lthumb 13.2541 57.2276
rfemur -18.435 0.941327 17.0248
rtibia 74.7423
rfoot -4.59971 -3.70539
rtoes 5.81245
lfemur -13.9988 -1.32912 -28.1068
ltibia 34.4423
lfoot -12.8803 1.03436
ltoes -0.341524
82
root 1.91053 17.2037 -13.5955 -4.61508 -4.46268 5.31612
lowerback 7.52798 0.00327285 -3.59957
upperback 0.552009 -0.275195 0.654383
thorax -3.63153 -0.0754403 2.73185
lowerneck -15.2361 -2.97057 -9.74838
upperneck 21.9938 -2.61619 3.94211
head 9.67556 -1.59492 2.66594
rclavicle -2.23943e-015 -9.54166e-015
rhumerus -29.6467 -16.0511 -77.7033
rradius 30.3378
rwrist 8.99471
rhand -14.5066 10.3664
rfingers 7.12502
rthumb 11.6406 -19.2903
lclavicle -2.23943e-015 -9.54166e-015
lhumerus -34.4528 14.3239 81.6792
lradius 21.3374
lwrist -13.7948
lhand -12.3599 28.2329
lfingers 7.12502
lthumb 13.7101 57.7613
rfemur -20.0477 0.678874 16.8125
rtibia 74.4652
rfoot -6.16491 -4.1907
rtoes 4.12683
lfemur -12.9982 -1.35093 -28.4716
ltibia 34.4917
lfoot -13.6893 1.38222
ltoes -1.01591
83
root 1.91011 17.1934 -13.3676 -4.6248 -4.47314 5.63778
lowerback 7.63519 -0.0483028 -3.94556
upperback 0.432351 -0.37853 0.681914
thorax -3.80627 -0.115292 2.96817
lowerneck -15.1932 -2.83916 -9.8771
upperneck 22.2945 -2.39156 3.87673
head 9.75887 -1.51585 2.69765
rclavicle 1.0312e-014 1.59028e-014
rhumerus -30.4114 -16.0238 -77.4173
rradius 30.0614
rwrist 8.76941
rhand -14.6752 11.3645
rfingers 7.12502
rthumb 11.478 -18.3013
lclavicle 1.0312e-014 1.59028e-014
lhumerus -34.2034 14.4298 81.6926
lradius 21.435
lwrist -14.4139
lhand -12.4778 27.5124
lfingers 7.12502
lthumb 13.5966 57.0484
rfemur -21.6952 0.43191 16.4562
rtibia 74.0228
rfoot -7.75089 -4.52304
rtoes 2.25545
lfemur -12.1437 -1.40351 -28.9526
ltibia 34.534
lfoot -14.3893 1.77218
ltoes -1.15431
84
root 1.90887 17.183 -13.1418 -4.63711 -4.61377 5.81137
lowerback 7.78329 -0.0935929 -4.13761
upperback 0.268517 -0.462924 0.729339
thorax -4.05155 -0.144999 3.13775
lowerneck -14.6599 -2.66405 -10.0471
upperneck 22.253 -2.16872 3.90057
head 9.6296 -1.4283 2.76491
rclavicle -1.51635e-014 5.56597e-015
rhumerus -31.4219 -15.4392 -77.357
rradius 30.107
rwrist 8.0799
rhand -14.8472 11.7188
rfingers 7.12502
rthumb 11.3121 -17.9561
lclavicle -1.51635e-014 5.56597e-015
lhumerus -34.0458 14.4104 81.6955
lradius 21.6596
lwrist -14.7768
lhand -12.5511 26.906
lfingers 7.12502
lthumb 13.5259 56.4468
rfemur -23.2592 0.323369 16.296
rtibia 73.3404
rfoot -8.82625 -4.67244
rtoes 0.604417
lfemur -11.2803 -1.40836 -29.259
ltibia 34.5631
lfoot -15.1465 2.2023
ltoes -0.520153
85
root 1.91057 17.1651 -12.9132 -4.60765 -4.81958 6.11904
lowerback 7.77617 -0.0701789 -4.45576
upperback 0.197687 -0.460311 0.74884
thorax -4.11947 -0.134501 3.33792
lowerneck -14.2383 -2.59025 -10.1449
upperneck 22.1339 -2.07225 3.83435
head 9.50248 -1.40009 2.76994
rclavicle 3.75423e-014 7.15625e-015
rhumerus -32.1408 -15.2529 -77.1769
rradius 29.9327
rwrist 7.75189
rhand -14.5757 11.534
rfingers 7.12502
rthumb 11.5739 -18.1264
lclavicle 3.75423e-014 7.15625e-015
lhumerus -33.5465 14.1334 81.8924
lradius 21.8263
lwrist -15.0632
lhand -12.3614 27.5979
lfingers 7.12502
lthumb 13.7087 57.1263
rfemur -24.8863 0.261657 15.9913
rtibia 72.4583
rfoot -9.47473 -4.5858
rtoes 1.1526
lfemur -10.4969 -1.3921 -29.7271
ltibia 34.5861
lfoot -15.8599 2.63917
ltoes -0.235373
86
root 1.90579 17.1408 -12.6882 -4.60139 -4.89496 6.37609
lowerback 7.89349 -0.0675903 -4.70961
upperback 0.191408 -0.486938 0.719608
thorax -4.18809 -0.141105 3.45513
lowerneck -14.403 -2.5869 -9.95756
upperneck 22.2507 -2.03514 3.58172
head 9.56771 -1.39649 2.6555
rclavicle 3.77225e-015 1.59028e-015
rhumerus -32.813 -14.9444 -77.1961
rradius 29.9479
rwrist 7.2068
rhand -14.3317 11.9769
rfingers 7.12502
rthumb 11.8092 -17.6701
lclavicle 3.77225e-015 1.59028e-015
lhumerus -32.9773 13.5835 82.1414
lradius 22.2295
lwrist -15.024
lhand -11.8124 28.8222
lfingers 7.12502
lthumb 14.2378 58.3142
rfemur -26.4136 0.109645 15.7792
rtibia 71.3373
rfoot -10.4046 -4.76065
rtoes -0.294551
lfemur -9.66636 -1.48388 -30.1215
ltibia 34.5607
lfoot -16.4397 3.00377
ltoes -0.884395
87
root 1.89749 17.12 -12.4657 -4.49869 -4.57739 6.6005
lowerback 7.94365 -0.253878 -4.99368
upperback 0.115228 -0.764239 0.742572
thorax -4.26613 -0.268935 3.67214
lowerneck -14.4823 -2.50311 -9.92532
upperneck 22.3992 -1.87987 3.42417
head 9.62243 -1.3423 2.61593
rclavicle 8.20064e-015 8.74653e-015
rhumerus -33.6501 -14.2679 -77.2543
rradius 30.1961
rwrist 6.64619
rhand -14.1443 12.3145
rfingers 7.12502
rthumb 11.9899 -17.3221
lclavicle 8.20064e-015 8.74653e-015
lhumerus -32.6215 13.2829 82.3206
lradius 22.7496
lwrist -14.7313
lhand -11.9776 29.2461
lfingers 7.12502
lthumb 14.0786 58.7493
rfemur -27.8332 -0.310209 15.5778
rtibia 69.94
rfoot -11.2714 -5.10153
rtoes -3.38886
lfemur -8.78811 -1.74396 -30.4905
ltibia 34.4537
lfoot -17.0839 3.10596
ltoes -1.14223
88
root 1.89086 17.1068 -12.2351 -4.27624 -4.22418 6.91239
lowerback 7.76771 -0.4211 -5.27744
upperback 0.0750346 -1.00658 0.681498
thorax -4.18165 -0.385476 3.79263
lowerneck -14.5698 -2.46163 -9.87249
upperneck 22.4797 -1.80944 3.35737
head 9.66105 -1.31398 2.59331
rclavicle 3.4771e-014 7.15625e-015
rhumerus -34.4047 -13.9458 -77.276
rradius 30.3039
rwrist 6.38245
rhand -13.94 12.17
rfingers 7.12502
rthumb 12.1869 -17.455
lclavicle 3.4771e-014 7.15625e-015
lhumerus -32.1054 12.7272 82.5188
lradius 23.2559
lwrist -14.321
lhand -12.4918 28.971
lfingers 7.12502
lthumb 13.583 58.5079
rfemur -29.1857 -0.718882 15.2407
rtibia 68.2463
rfoot -12.1351 -5.34543
rtoes -6.02939
lfemur -7.93543 -1.9721 -30.9748
ltibia 34.2442
lfoot -17.7986 3.35754
ltoes -2.00211
89
root 1.88831 17.102 -11.998 -4.06174 -4.32776 7.03702
lowerback 7.54454 -0.387982 -5.30574
upperback 0.173362 -0.950893 0.651037
thorax -3.95932 -0.366299 3.76542
lowerneck -15.0086 -2.47754 -9.85589
upperneck 22.5985 -1.795 3.39251
head 9.7846 -1.30142 2.60505
rclavicle -4.31114e-015 1.43125e-014
rhumerus -34.8056 -13.949 -77.2702
rradius 30.1877
rwrist 6.27268
rhand -13.7975 12.2142
rfingers 7.12502
rthumb 12.3243 -17.4026
lclavicle -4.31114e-015 1.43125e-014
lhumerus -31.3484 11.9624 82.847
lradius 23.844
lwrist -13.642
lhand -12.3362 28.1477
lfingers 7.12502
lthumb 13.733 57.6745
rfemur -30.436 -0.694213 15.1414
rtibia 66.2385
rfoot -12.9434 -5.66814
rtoes -9.56306
lfemur -7.12689 -2.11985 -31.2545
ltibia 33.8979
lfoot -18.3113 3.75647
ltoes -1.64177
90
root 1.88531 17.0925 -11.7658 -3.89034 -4.58924 7.10815
lowerback 7.45703 -0.386845 -5.36907
upperback 0.184108 -0.946005 0.736231
thorax -3.8971 -0.364037 3.88805
lowerneck -15.1514 -2.37148 -9.99708
upperneck 22.5758 -1.59908 3.41698
head 9.79103 -1.21836 2.66194
rclavicle -9.80257e-015 -3.97569e-015
rhumerus -35.26 -13.7438 -77.1704
rradius 29.9875
rwrist 6.57728
rhand -13.6317 12.4172
rfingers 7.12502
rthumb 12.4843 -17.1899
lclavicle -9.80257e-015 -3.97569e-015
lhumerus -30.9787 11.4782 83.1475
lradius 24.6831
lwrist -12.5485
lhand -12.2231 27.6386
lfingers 7.12502
lthumb 13.842 57.158
rfemur -31.5449 -0.457547 15.0969
rtibia 63.9622
rfoot -12.0078 -5.89291
rtoes -5.99386
lfemur -6.18613 -2.20792 -31.4946
ltibia 33.3275
lfoot -18.7288 4.25837
ltoes -1.79098
91
root 1.88128 17.0855 -11.5345 -3.6897 -4.4812 7.42193
lowerback 7.45012 -0.480208 -5.63051
upperback 0.0771521 -1.09637 0.708242
thorax -3.98506 -0.428865 4.0232
lowerneck -15.1723 -2.31506 -10.0254
upperneck 22.5738 -1.50093 3.37868
head 9.78726 -1.17958 2.66572
rclavicle -2.14066e-014 -3.97569e-015
rhumerus -35.9824 -13.3946 -77.1444
rradius 29.899
rwrist 6.78651
rhand -13.9268 12.45
rfingers 7.12502
rthumb 12.1997 -17.1742
lclavicle -2.14066e-014 -3.97569e-015
lhumerus -30.5364 10.9422 83.2855
lradius 25.1264
lwrist -12.1931
lhand -12.6081 26.6827
lfingers 7.12502
lthumb 13.471 56.2271
rfemur -32.5376 -0.53586 14.7233
rtibia 61.4342
rfoot -11.5023 -6.18284
rtoes -4.60541
lfemur -5.12156 -2.43256 -31.9983
ltibia 32.5368
lfoot -19.1197 4.60603
ltoes -1.94457
